<svg width="87" height="96" viewBox="0 0 87 96" fill="none" xmlns="http://www.w3.org/2000/svg">
<path d="M39.9736 5.26397C39.6241 4.93634 39.2746 4.69607 38.947 4.52134C38.6194 4.36844 38.2481 4.28107 37.8331 4.28107C37.3525 4.28107 37.003 4.39028 36.7628 4.58686C36.5225 4.78344 36.3915 5.11108 36.3915 5.54792C36.3915 5.85371 36.5225 6.13766 36.7846 6.33424C37.0467 6.55266 37.3525 6.74924 37.7457 6.94582C38.1388 7.1424 38.5538 7.33898 38.9907 7.5574C39.4275 7.77582 39.8425 8.01609 40.2357 8.32188C40.6289 8.62767 40.9346 8.97715 41.1968 9.41399C41.4589 9.85083 41.5899 10.375 41.5899 10.9866C41.5899 11.9258 41.3278 12.734 40.8254 13.4111C40.3231 14.0882 39.5367 14.5251 38.532 14.7653V16.8185H36.6317V14.8527C36.0638 14.7872 35.4523 14.6343 34.8188 14.3722C34.1854 14.1101 33.6394 13.7824 33.1807 13.3674L34.4475 11.4235C34.9499 11.7948 35.4304 12.0787 35.8673 12.2753C36.3259 12.4719 36.7846 12.5593 37.2433 12.5593C37.7894 12.5593 38.2044 12.4501 38.4446 12.2316C38.7067 12.0132 38.8378 11.6637 38.8378 11.2051C38.8378 10.8556 38.7067 10.5716 38.4446 10.3314C38.1825 10.0911 37.8767 9.87268 37.4836 9.65425C37.0904 9.43583 36.6754 9.21741 36.2386 8.99899C35.8017 8.78057 35.3867 8.51846 34.9936 8.21267C34.6004 7.90688 34.2946 7.5574 34.0325 7.1424C33.7704 6.7274 33.6394 6.24687 33.6394 5.65713C33.6394 4.69607 33.9015 3.88791 34.4257 3.25449C34.9499 2.62106 35.6925 2.20606 36.6099 2.03132V0H38.5102V1.98764C39.1436 2.07501 39.6896 2.27159 40.1702 2.55554C40.6507 2.83949 41.0657 3.18896 41.4589 3.60396L39.9736 5.26397Z" fill="#333B41"/>
<path fill-rule="evenodd" clip-rule="evenodd" d="M87 76.0004L83.4063 73.7889L75.3895 88.1638L79.2597 90.0989L87 76.0004Z" fill="#333B41"/>
<path fill-rule="evenodd" clip-rule="evenodd" d="M81.4707 73.2356C72.0717 62.4544 63.7785 65.2188 52.7209 72.4062C43.0454 78.7644 35.858 74.3413 28.6705 77.3822C27.0119 78.2115 24.5239 80.1466 26.7354 82.0817C27.8412 82.911 32.2642 83.7403 33.6464 83.4639C41.1103 81.8052 43.3219 85.1225 54.6559 82.911C51.3387 85.399 40.5575 83.7403 33.9229 84.5696C28.6705 85.6754 20.1008 81.5288 27.0119 76.8293C23.971 75.4471 21.2066 74.6178 17.8893 74.3413C14.572 71.8534 9.31965 68.8125 6.55525 67.7067C4.34372 66.3245 -1.1851 66.8774 2.40863 70.4712C6.00236 73.7884 15.6778 81.2523 17.6129 82.3581C25.3532 87.0576 32.5407 90.3749 40.0046 94.5215C40.0046 94.5215 42.4926 95.9037 47.4685 93.9686C51.0622 92.31 67.0958 83.4639 70.966 84.8461C73.1775 85.6754 74.2832 86.2283 74.2832 86.2283L81.4707 73.2356Z" stroke="#333B41" stroke-width="1.5"/>
<path fill-rule="evenodd" clip-rule="evenodd" d="M34.753 72.4061C35.3059 71.3003 35.8588 70.471 36.6881 70.1946C37.5175 69.9181 37.7939 70.471 38.3468 71.0239C38.8997 71.8532 39.1761 72.1297 40.0054 72.6825C40.2819 72.959 40.8347 72.959 41.1112 72.959L40.5583 72.6825C39.729 72.1297 39.1761 71.5768 39.4525 70.471C39.4525 70.1946 39.1761 69.6417 39.729 69.6417C40.2819 69.9181 41.1112 70.471 41.9405 70.471C41.9405 70.471 42.7698 70.7475 42.4934 70.471C42.4934 70.1946 41.9405 69.9181 41.6641 69.6417C40.0054 68.2595 40.0054 67.983 40.0054 66.048C40.2819 63.2836 39.1761 61.072 37.241 59.1369C32.818 54.7139 34.753 48.6322 38.0703 42.8269C41.1112 37.5746 43.8756 36.7452 40.8347 30.3871C39.729 27.6227 37.7939 24.8583 37.5175 23.1996C37.5175 22.6468 37.5175 22.9232 37.5175 23.1996C37.241 24.8583 38.3468 27.3463 39.4525 29.8342C41.9405 35.363 41.3876 35.9159 37.7939 40.8918C33.9237 45.8678 31.1593 51.1202 32.818 56.649C33.9237 60.5191 39.4525 64.3893 36.6881 66.8773C35.3059 67.983 33.3708 70.7475 33.0944 72.4061C32.818 73.2354 32.818 73.2354 32.5415 73.7883C32.2651 74.0647 32.5415 74.0647 32.818 74.0647C34.2002 73.7883 34.2002 73.2354 34.753 72.4061Z" fill="#333B41"/>
<path d="M53.0677 46.529L53.9799 46.2684L54.023 47.2161C54.1708 50.4683 52.7782 54.3664 50.489 57.4425C49.3021 59.0375 47.8403 60.4545 46.1795 61.4487C47.2727 61.074 48.4757 60.3838 49.6928 59.1695C52.9275 55.6792 53.8194 51.2419 54.8556 45.5536C53.89 45.6402 52.9387 45.8564 51.9619 46.1392C51.3209 46.3247 50.677 46.5364 50.0108 46.757C49.9705 46.7704 49.9301 46.7838 49.8896 46.7972C49.2722 47.0018 48.6355 47.2127 47.9828 47.4089C42.8542 49.3021 40.0786 51.6595 39.0703 54.3645C38.8199 55.654 38.8549 56.8192 39.2932 57.696L39.33 57.7696L39.35 57.8495C39.5233 58.5427 40.2249 59.1847 41.1661 59.7019C42.2173 58.713 42.9502 57.8296 43.6708 56.9124C43.4955 57.0928 43.3317 57.265 43.1767 57.428C43.051 57.5602 42.931 57.6863 42.8155 57.8057C42.6192 58.0085 42.4291 58.1985 42.2543 58.3497C42.097 58.4858 41.8773 58.6584 41.624 58.7429L41.435 58.8059L41.2397 58.7668C40.345 58.5879 39.6724 58.0935 39.3967 57.2664C39.1497 56.5252 39.2725 55.6546 39.5606 54.7804C40.0548 52.8473 41.5706 51.3363 43.8137 50.0545C46.0716 48.7643 49.1834 47.6388 53.0677 46.529Z" stroke="#333B41" stroke-width="1.5"/>
<path d="M26.3594 28.3644C24.8831 27.8492 23.5972 27.4005 22.1585 27.1376C22.2078 27.3789 22.2563 27.6175 22.3042 27.8535C22.4347 28.4963 22.5613 29.1198 22.6905 29.7246C22.6546 29.2771 22.647 28.8382 22.6694 28.4124L22.7192 27.4666L23.6284 27.7318C26.9609 28.7038 29.6536 29.6904 31.6306 30.8048C33.3946 31.799 34.6823 32.9474 35.2881 34.3666C34.4482 32.1059 32.2371 30.1687 27.9062 28.8949L27.8934 28.8911L27.8807 28.8869C27.3452 28.7084 26.8421 28.5328 26.3594 28.3644ZM25.6845 37.3307C25.0998 36.544 24.5847 35.6921 24.1529 34.8091C24.7587 36.2532 25.5579 37.5475 26.7131 38.7027L26.7229 38.7125L26.7324 38.7227C27.3687 39.408 28.0078 39.8996 28.6249 40.2467C27.5044 39.458 26.5134 38.4458 25.6845 37.3307ZM35.4638 37.5154C35.8983 36.6465 35.9108 35.8128 35.5013 34.9459C35.7844 35.7324 35.7964 36.5125 35.5109 37.1787C35.2048 37.8931 34.5924 38.3875 33.8286 38.5784L33.6167 38.6314L33.4095 38.5623C33.325 38.5341 33.2441 38.4969 33.168 38.455C33.3421 38.6533 33.5254 38.8555 33.7215 39.0632L33.7412 39.0583C34.7002 38.8185 35.2236 38.4027 35.407 37.6689L35.427 37.589L35.4638 37.5154Z" stroke="#333B41" stroke-width="1.5"/>
<path d="M50.7817 28.6734C50.4562 29.062 50.1084 29.4323 49.7404 29.7771C49.9069 29.6374 50.0745 29.4844 50.2426 29.317C50.4332 29.1067 50.6125 28.8922 50.7817 28.6734ZM53.9904 19.4629C53.9931 19.4482 53.9958 19.4336 53.9985 19.4189C52.4669 19.7173 50.8898 20.1955 49.1138 20.8616L49.1138 20.8617L49.1027 20.8656C45.6254 22.1075 43.7148 23.5078 42.8639 25.3818C43.4433 24.1922 44.4856 23.2208 45.9543 22.3771C47.6626 21.3957 50.0171 20.5465 53.0761 19.7122L53.9904 19.4629ZM43.9138 29.1641C43.613 29.0638 43.3531 28.9104 43.14 28.7123C43.3282 29.0575 43.5877 29.3413 43.9505 29.5208C44.0559 29.4112 44.1572 29.3037 44.2551 29.1978C44.2211 29.2009 44.1863 29.2025 44.1509 29.2025H44.0292L43.9138 29.1641Z" stroke="#333B41" stroke-width="1.5"/>
</svg>
